<svg width="35" height="35" viewBox="0 0 35 35" fill="none" xmlns="http://www.w3.org/2000/svg">
<path d="M12.0149 35C12.5559 34.7611 12.9348 34.2092 12.9348 33.5668V29.3514C12.9348 29.1976 12.947 29.0376 12.966 28.8752C12.9553 28.8784 12.9454 28.8807 12.9348 28.883C12.9348 28.883 10.6522 28.883 10.1957 28.883C9.05435 28.883 8.06522 28.4147 7.6087 27.4779C7.07609 26.4631 6.84783 24.7457 5.47826 23.809C5.25 23.6529 5.40217 23.4187 5.8587 23.4187C6.31522 23.4967 7.30435 24.1212 7.91304 24.9799C8.59783 25.8386 9.28261 26.5412 10.5 26.5412C12.3923 26.5412 13.4065 26.4436 14.0167 26.1079C14.7274 25.0236 15.7112 24.1993 16.7391 24.1993V24.1798C12.4265 24.0377 9.67141 22.567 8.38859 20.2962C5.6 20.329 3.17207 20.6123 1.78652 20.8481C1.74239 20.5928 1.70435 20.336 1.67163 20.0776C3.03891 19.8466 5.35652 19.5726 8.02109 19.5203C7.93587 19.3048 7.86207 19.0839 7.79967 18.8575C5.12826 18.7186 2.82283 18.8271 1.57043 18.9332C1.55522 18.6741 1.53467 18.4157 1.53163 18.1534C2.7863 18.048 5.02935 17.9426 7.63228 18.0667C7.57217 17.6764 7.53337 17.2775 7.53337 16.8622C7.53337 15.5352 7.98989 14.1301 8.82685 12.9591C8.44641 11.6321 7.9138 8.82182 8.97902 7.80701C11.0334 7.80701 12.479 8.82182 13.1638 9.44632C14.4565 8.8991 15.9022 8.58685 17.5 8.58685C19.0978 8.58685 20.5435 8.8991 21.7609 9.44554C22.4457 8.82104 23.8913 7.80623 25.9457 7.80623C27.087 8.8991 26.4783 11.7093 26.0978 12.9583C26.9348 14.1293 27.3913 15.4563 27.3152 16.8615C27.3152 17.2393 27.281 17.6038 27.2315 17.9613C29.8938 17.8271 32.1977 17.9348 33.4737 18.041C33.4722 18.304 33.4486 18.5609 33.4349 18.8208C32.1635 18.7131 29.8017 18.6022 27.0748 18.7513C27.0071 19.0136 26.9249 19.2689 26.8275 19.5163C29.5255 19.5523 31.8987 19.82 33.3314 20.0542C33.2987 20.3134 33.2607 20.5702 33.2165 20.8247C31.7617 20.5858 29.2821 20.3063 26.4608 20.2923C25.1939 22.5389 22.489 24.0042 18.2609 24.1751V24.1993C20.2391 24.1993 22.0652 27.2437 22.0652 29.3514V33.5668C22.0652 34.2092 22.4441 34.7611 22.9851 35C29.9554 32.6332 35 25.8886 35 17.9543C35 8.05447 27.1501 0 17.5 0C7.84989 0 0 8.05447 0 17.9543C0 25.8886 5.04457 32.6332 12.0149 35Z" fill="url(#paint0_linear_3_5)"/>
<defs>
<linearGradient id="paint0_linear_3_5" x1="17.5" y1="0" x2="17.5" y2="35" gradientUnits="userSpaceOnUse">
<stop stop-color="#6B2FB9"/>
<stop offset="1" stop-color="#CDACF9"/>
</linearGradient>
</defs>
</svg>
