<svg width="50" height="50" viewBox="0 0 237 236" fill="none" xmlns="http://www.w3.org/2000/svg">
<path d="M110 0.12732C103.2 0.72732 95.2 2.12732 89.5 3.52732C47.9 14.0273 14.7 47.2273 4.2 88.8273C1.5 99.6273 0.799999 105.927 0.799999 118.027C0.799999 130.127 1.5 136.427 4.2 147.227C14.7 188.927 48 222.227 89.7 232.527C130.5 242.627 173 230.927 202.3 201.427C231.7 171.727 243.2 129.827 233.2 89.1273C222.8 47.3273 189.4 13.9273 147.6 3.52732C143.9 2.62732 138.5 1.52732 135.6 1.12732C130.6 0.32732 114.1 -0.27268 110 0.12732ZM122.8 77.6273C125.3 78.8273 168.8 122.027 171.1 125.427C172.8 128.027 173 131.527 171.7 134.127C170.6 136.227 173.8 173.2 171.1 175C168.5 176.7 152 149.927 149.4 148.627C148.5 148.227 141.2 141.327 133.2 133.327L118.6 118.727L104 133.327C96 141.327 88.7 148.227 87.8 148.627C85.2 149.927 75.9 176.6 73.3 175C70.6 173.3 66.6 136.327 65.5 134.127C64.5 132.127 64.5 128.427 65.5 126.327C66.5 124.227 110.6 79.9273 113.5 78.0273C116.5 76.2273 119.8 76.1273 122.8 77.6273Z" fill="url(#paint0_linear_4_14)"/>
<defs>
<linearGradient id="paint0_linear_4_14" x1="111.968" y1="0" x2="111.968" y2="236.088" gradientUnits="userSpaceOnUse">
<stop stop-color="#6B2FB9"/>
<stop offset="1" stop-color="#CDACF9"/>
</linearGradient>
</defs>
</svg>
