<svg width="35" height="35" viewBox="0 0 35 35" fill="none" xmlns="http://www.w3.org/2000/svg">
<path d="M17.5 0C7.83529 0 0 7.83529 0 17.5C0 27.1647 7.83529 35 17.5 35C27.1647 35 35 27.1647 35 17.5C35 7.83529 27.1647 0 17.5 0ZM26.2009 13.6137C26.2089 13.7961 26.2123 13.9791 26.2123 14.1629C26.2123 19.7763 22.0466 26.25 14.4267 26.25C12.0871 26.25 9.90971 25.5466 8.07625 24.3418C8.40067 24.3815 8.73115 24.4017 9.065 24.4017C11.0062 24.4017 12.7925 23.7226 14.21 22.5831C12.3974 22.5487 10.8675 21.3197 10.3405 19.6323C10.5929 19.6808 10.8527 19.7077 11.1192 19.7077C11.4975 19.7077 11.8643 19.6559 12.211 19.5589C10.3156 19.1692 8.88798 17.4522 8.88798 15.3939C8.88798 15.3758 8.88798 15.3589 8.88798 15.3408C9.44663 15.6585 10.0854 15.8496 10.7645 15.8718C9.65327 15.1106 8.92231 13.8102 8.92231 12.3368C8.92231 11.5574 9.12625 10.8278 9.48231 10.1998C11.5264 12.7703 14.5782 14.4624 18.021 14.6388C17.951 14.3291 17.9139 14.004 17.9139 13.6709C17.9139 11.3252 19.7683 9.42308 22.0561 9.42308C23.2474 9.42308 24.3237 9.93933 25.0795 10.7652C26.0238 10.574 26.911 10.2207 27.7106 9.73404C27.4016 10.7262 26.7454 11.5588 25.8892 12.0844C26.7279 11.9808 27.5262 11.7533 28.2692 11.4147C27.7139 12.2662 27.0112 13.0139 26.2009 13.6137Z" fill="url(#paint0_linear_3_7)"/>
<defs>
<linearGradient id="paint0_linear_3_7" x1="17.5" y1="0" x2="17.5" y2="35" gradientUnits="userSpaceOnUse">
<stop stop-color="#6B2FB9"/>
<stop offset="1" stop-color="#CDACF9"/>
</linearGradient>
</defs>
</svg>
